<svg width="224" height="9" viewBox="0 0 224 9" fill="none" xmlns="http://www.w3.org/2000/svg">
<path id="Line 9" opacity="0.6" d="M1 4C0.723858 4 0.5 4.22386 0.5 4.5C0.5 4.77614 0.723858 5 1 5V4ZM223.354 4.85355C223.549 4.65829 223.549 4.34171 223.354 4.14645L220.172 0.964466C219.976 0.769204 219.66 0.769204 219.464 0.964466C219.269 1.15973 219.269 1.47631 219.464 1.67157L222.293 4.5L219.464 7.32843C219.269 7.52369 219.269 7.84027 219.464 8.03553C219.66 8.2308 219.976 8.2308 220.172 8.03553L223.354 4.85355ZM1 5H4.46875V4H1V5ZM11.4062 5H18.3438V4H11.4062V5ZM25.2812 5H32.2188V4H25.2812V5ZM39.1562 5H46.0938V4H39.1562V5ZM53.0312 5H59.9688V4H53.0312V5ZM66.9062 5H73.8438V4H66.9062V5ZM80.7812 5H87.7188V4H80.7812V5ZM94.6562 5H101.594V4H94.6562V5ZM108.531 5H115.469V4H108.531V5ZM122.406 5H129.344V4H122.406V5ZM136.281 5H143.219V4H136.281V5ZM150.156 5H157.094V4H150.156V5ZM164.031 5H170.969V4H164.031V5ZM177.906 5H184.844V4H177.906V5ZM191.781 5H198.719V4H191.781V5ZM205.656 5H212.594V4H205.656V5ZM219.531 5H223V4H219.531V5Z" fill="#1DA664"/>
</svg>
