<svg width="197" height="32" viewBox="0 0 197 32" fill="none" xmlns="http://www.w3.org/2000/svg">
<g id="Group 117">
<g id="Group">
<path id="Vector" d="M15.738 1.5809C14.844 1.54723 14.3989 1.97178 14.4027 2.85453C14.4064 3.81209 14.3952 4.7416 14.369 5.64305C14.3656 5.76359 14.3873 5.88351 14.4326 5.99502C14.478 6.10652 14.5461 6.20711 14.6323 6.29021C14.7186 6.37332 14.8212 6.43708 14.9334 6.47735C15.0456 6.51762 15.1649 6.5335 15.2835 6.52394C16.3982 6.44165 17.569 6.40611 18.7959 6.41733C19.1475 6.42107 19.5346 6.21535 19.9573 5.80015" stroke="#F4F584" stroke-width="1.12214"/>
<path id="Vector_2" d="M12.3211 25.9483C12.4595 24.8897 12.525 23.8125 12.5175 22.7165C12.51 21.6205 11.9882 21.0707 10.9521 21.0669C10.2489 21.0632 9.40917 21.1212 8.4329 21.2409C8.31126 21.255 8.19742 21.3086 8.10841 21.3936C8.01941 21.4785 7.96003 21.5903 7.93916 21.7122C7.66985 23.2009 7.71847 24.6148 8.08504 25.9539" stroke="#F5F8A4" stroke-width="1.12214"/>
<path id="Vector_3" d="M7.92228 19.552C7.95221 19.7203 8.01018 19.8755 8.09622 20.0177C8.20095 20.1823 8.35057 20.2646 8.54507 20.2646L11.8554 20.2365C12.0761 20.2328 12.2145 20.1243 12.2706 19.9111L12.3996 19.4005C12.4632 19.1499 12.5698 19.1293 12.7194 19.3388L14.3017 21.5494C14.3233 21.5792 14.3529 21.6024 14.3871 21.6162C14.4213 21.63 14.4586 21.6339 14.4949 21.6274C14.5312 21.621 14.565 21.6045 14.5923 21.5798C14.6196 21.5551 14.6395 21.5231 14.6495 21.4877L15.6202 17.9361C15.6488 17.8341 15.6494 17.7264 15.6217 17.6246C15.594 17.5227 15.5392 17.4307 15.4631 17.3582L13.7967 15.7367C13.6583 15.6021 13.6115 15.4412 13.6564 15.2542C14.5485 11.6128 13.6059 6.97838 10.4191 4.63871C10.2358 4.5078 10.0637 4.51902 9.90287 4.67238C6.80575 7.63858 5.75655 11.149 6.75525 15.2037C6.77902 15.3007 6.77647 15.4023 6.74786 15.4979C6.71926 15.5936 6.66564 15.6799 6.59254 15.7479L4.86444 17.3694C4.79893 17.4314 4.75211 17.5106 4.7293 17.5978C4.70649 17.6851 4.70861 17.777 4.7354 17.8632L5.74533 21.0893C5.94357 21.7252 6.18857 21.7439 6.48033 21.1454C6.77957 20.532 7.13491 19.9672 7.54637 19.451C7.74461 19.2041 7.86992 19.2378 7.92228 19.552Z" stroke="#7E802B" stroke-width="1.12214"/>
<path id="Vector_4" d="M11.9844 11.2201C11.9844 10.7439 11.7953 10.2873 11.4585 9.95055C11.1218 9.61384 10.6652 9.42468 10.189 9.42468C9.71281 9.42468 9.25613 9.61384 8.91942 9.95055C8.58271 10.2873 8.39355 10.7439 8.39355 11.2201C8.39355 11.6963 8.58271 12.153 8.91942 12.4897C9.25613 12.8264 9.71281 13.0155 10.189 13.0155C10.6652 13.0155 11.1218 12.8264 11.4585 12.4897C11.7953 12.153 11.9844 11.6963 11.9844 11.2201Z" stroke="#878785" stroke-width="1.12214"/>
<path id="Vector_5" d="M9.84669 22.8287C9.84295 22.5257 9.73634 22.2732 9.52688 22.0712C9.21268 21.772 9.07428 21.8375 9.11168 22.2676C9.25008 23.8648 9.49695 25.361 9.8523 26.7562C10.1291 27.8297 10.3853 27.8241 10.621 26.7393C10.8716 25.5948 11.053 24.4539 11.1652 23.3168C11.1989 23.0026 11.0642 22.8923 10.7612 22.9858C10.5854 23.0381 10.404 23.0849 10.217 23.126C9.9776 23.1784 9.85417 23.0793 9.84669 22.8287Z" stroke="#F5F8A4" stroke-width="1.12214"/>
</g>
<path id="Vector_6" d="M15.7381 1.58091C14.8441 1.54725 14.399 1.97179 14.4027 2.85454C14.4064 3.8121 14.3952 4.74161 14.369 5.64307C14.3656 5.7636 14.3873 5.88353 14.4327 5.99503C14.4781 6.10654 14.5461 6.20712 14.6324 6.29023C14.7187 6.37333 14.8213 6.4371 14.9335 6.47737C15.0457 6.51764 15.165 6.53351 15.2836 6.52395C16.3983 6.44166 17.569 6.40613 18.7959 6.41735C19.1475 6.42109 19.5346 6.21536 19.9573 5.80017C20.2322 5.95166 20.4286 6.24341 20.4286 6.56323C20.4062 13.023 20.408 19.3781 20.4342 25.6284C20.438 25.8379 20.3351 25.9426 20.1256 25.9426L12.3211 25.9482C12.4595 24.8897 12.525 23.8124 12.5175 22.7165C12.51 21.6205 11.9882 21.0707 10.9521 21.0669C10.2489 21.0632 9.40917 21.1212 8.43291 21.2409C8.31127 21.255 8.19742 21.3086 8.10841 21.3936C8.01941 21.4785 7.96003 21.5903 7.93916 21.7122C7.66985 23.2009 7.71847 24.6148 8.08504 25.9539L0.347865 25.9651C0.115955 25.9651 0 25.851 0 25.6228V0.621478C0 0.434454 0.0935119 0.340942 0.280536 0.340942H14.2063C14.3971 0.340942 14.5598 0.4064 14.6945 0.537317L15.7381 1.58091ZM7.92233 19.552C7.95225 19.7204 8.01023 19.8756 8.09626 20.0177C8.201 20.1823 8.35061 20.2646 8.54512 20.2646L11.8554 20.2365C12.0761 20.2328 12.2145 20.1243 12.2706 19.9111L12.3997 19.4005C12.4633 19.1499 12.5699 19.1294 12.7195 19.3388L14.3017 21.5494C14.3234 21.5793 14.353 21.6024 14.3871 21.6162C14.4213 21.63 14.4587 21.6339 14.495 21.6275C14.5313 21.621 14.565 21.6045 14.5923 21.5798C14.6197 21.5551 14.6395 21.5232 14.6496 21.4877L15.6202 17.9361C15.6489 17.8341 15.6494 17.7264 15.6217 17.6246C15.594 17.5228 15.5392 17.4307 15.4631 17.3582L13.7968 15.7367C13.6584 15.6021 13.6116 15.4412 13.6565 15.2542C14.5486 11.6129 13.606 6.97842 10.4191 4.63875C10.2358 4.50783 10.0638 4.51905 9.90291 4.67241C6.8058 7.63861 5.75659 11.149 6.7553 15.2037C6.77907 15.3007 6.77651 15.4023 6.74791 15.498C6.71931 15.5936 6.66569 15.6799 6.59259 15.748L4.86449 17.3695C4.79898 17.4315 4.75216 17.5106 4.72935 17.5979C4.70654 17.6852 4.70865 17.7771 4.73544 17.8632L5.74537 21.0894C5.94362 21.7253 6.18862 21.744 6.48038 21.1455C6.77962 20.532 7.13496 19.9672 7.54641 19.451C7.74466 19.2042 7.86996 19.2378 7.92233 19.552Z" fill="#ECF14A"/>
<path id="Vector_7" d="M15.738 1.5809L19.9573 5.80015C19.5346 6.21535 19.1475 6.42107 18.7959 6.41733C17.569 6.40611 16.3982 6.44165 15.2835 6.52394C15.1649 6.5335 15.0456 6.51762 14.9334 6.47735C14.8212 6.43708 14.7186 6.37332 14.6323 6.29021C14.5461 6.20711 14.478 6.10652 14.4326 5.99502C14.3873 5.88351 14.3656 5.76359 14.369 5.64305C14.3952 4.7416 14.4064 3.81209 14.4027 2.85453C14.3989 1.97178 14.844 1.54723 15.738 1.5809Z" fill="#FBF8BE"/>
<path id="Vector_8" d="M7.54637 19.451C7.13491 19.9672 6.77957 20.532 6.48033 21.1454C6.18857 21.7439 5.94357 21.7252 5.74533 21.0893L4.7354 17.8632C4.70861 17.777 4.70649 17.6851 4.7293 17.5978C4.75211 17.5106 4.79893 17.4314 4.86444 17.3694L6.59254 15.7479C6.66564 15.6799 6.71926 15.5936 6.74786 15.4979C6.77647 15.4023 6.77902 15.3007 6.75525 15.2037C5.75655 11.149 6.80575 7.63858 9.90287 4.67238C10.0637 4.51902 10.2358 4.5078 10.4191 4.63871C13.6059 6.97838 14.5485 11.6128 13.6564 15.2542C13.6115 15.4412 13.6583 15.6021 13.7967 15.7367L15.4631 17.3582C15.5392 17.4307 15.594 17.5227 15.6217 17.6246C15.6494 17.7264 15.6488 17.8341 15.6202 17.9361L14.6495 21.4877C14.6395 21.5231 14.6196 21.5551 14.5923 21.5798C14.565 21.6045 14.5312 21.621 14.4949 21.6274C14.4586 21.6339 14.4213 21.63 14.3871 21.6162C14.3529 21.6024 14.3233 21.5792 14.3017 21.5494L12.7194 19.3388C12.5698 19.1293 12.4632 19.1499 12.3996 19.4005L12.2706 19.9111C12.2145 20.1243 12.0761 20.2328 11.8554 20.2365L8.54507 20.2646C8.35057 20.2646 8.20095 20.1823 8.09622 20.0177C8.01018 19.8755 7.95221 19.7203 7.92228 19.552C7.86992 19.2378 7.74461 19.2041 7.54637 19.451ZM11.9844 11.2201C11.9844 10.7439 11.7953 10.2872 11.4586 9.95052C11.1219 9.61382 10.6652 9.42465 10.189 9.42465C9.71284 9.42465 9.25616 9.61382 8.91945 9.95052C8.58274 10.2872 8.39358 10.7439 8.39358 11.2201C8.39358 11.6963 8.58274 12.1529 8.91945 12.4896C9.25616 12.8264 9.71284 13.0155 10.189 13.0155C10.6652 13.0155 11.1219 12.8264 11.4586 12.4896C11.7953 12.1529 11.9844 11.6963 11.9844 11.2201Z" fill="#0F0F0B"/>
<path id="Vector_9" d="M98.5858 12.8641C98.6301 13.0526 98.7236 13.2259 98.8568 13.366C98.9899 13.506 99.1579 13.6078 99.3433 13.6608C100.776 14.076 102.19 14.4669 103.585 14.8334C107.591 15.8826 107.35 21.0501 103.692 22.2732C100.342 23.3954 95.4326 22.6155 95.1913 18.2391C95.1898 18.2099 95.1942 18.1807 95.2042 18.1533C95.2141 18.1258 95.2295 18.1006 95.2494 18.0791C95.2693 18.0577 95.2932 18.0404 95.3199 18.0284C95.3465 18.0164 95.3753 18.0098 95.4045 18.0091L97.7835 17.9979C97.9443 17.9941 98.036 18.0708 98.0584 18.2279C98.3894 20.5676 101.515 21.1904 103.215 19.8045C103.472 19.5958 103.635 19.2938 103.67 18.9647C103.705 18.6356 103.607 18.3061 103.4 18.0484C103.052 17.6145 102.594 17.3302 102.025 17.1956C99.3713 16.5672 95.3204 15.9556 95.6963 12.3198C96.1957 7.39924 105.543 7.32069 106.071 12.6845C106.093 12.9164 105.988 13.0324 105.756 13.0324H103.641C103.413 13.0324 103.265 12.9239 103.198 12.707C102.704 11.1622 101.537 10.631 99.6967 11.1135C98.7354 11.3641 98.3651 11.9477 98.5858 12.8641Z" fill="#04050B"/>
<path id="Vector_10" d="M36.1218 16.2866C37.0457 16.7429 37.5357 17.4873 37.5918 18.5196C37.6666 19.7839 37.8387 21.0594 38.108 22.3461C38.123 22.4247 38.0912 22.464 38.0126 22.464H35.499C35.4254 22.4634 35.3543 22.4365 35.2987 22.3882C35.2432 22.3398 35.2067 22.2731 35.196 22.2003C35.0464 21.0856 34.9136 20.027 34.7977 19.0246C34.5171 16.5615 31.7286 17.1675 29.9949 17.1394C29.778 17.1357 29.6695 17.2423 29.6695 17.4592L29.6751 22.2732C29.6751 22.4041 29.6096 22.4696 29.4787 22.4696L26.881 22.4584C26.7613 22.4584 26.7014 22.3985 26.7014 22.2788L26.6958 9.33489C26.6958 9.10673 26.8118 8.99638 27.0437 9.00386C28.9962 9.06371 31.0422 9.0581 33.1818 8.98703C36.1386 8.88604 38.3549 10.4683 37.7826 13.6495C37.5956 14.6744 37.042 15.43 36.1218 15.9163C35.8824 16.0434 35.8824 16.1669 36.1218 16.2866ZM29.6526 11.5399L29.6751 14.8614C29.6751 14.9269 29.7011 14.9897 29.7474 15.036C29.7937 15.0823 29.8565 15.1083 29.922 15.1083L33.1593 15.0859C33.6309 15.0827 34.082 14.9059 34.4134 14.5945C34.7448 14.2831 34.9294 13.8624 34.9267 13.4251V12.9089C34.9254 12.6922 34.878 12.4779 34.7873 12.2783C34.6966 12.0787 34.5644 11.8976 34.3982 11.7455C34.232 11.5933 34.035 11.4731 33.8186 11.3916C33.6022 11.3101 33.3706 11.269 33.1369 11.2706L29.8995 11.293C29.834 11.293 29.7713 11.319 29.725 11.3653C29.6787 11.4116 29.6526 11.4744 29.6526 11.5399Z" fill="#04050B"/>
<path id="Vector_11" d="M65.5612 15.8658L68.2543 13.0604C68.4974 12.8098 68.7929 12.6845 69.1408 12.6845H71.2841C71.6058 12.6845 71.6525 12.7967 71.4244 13.0212L68.3048 16.0566C68.1515 16.2062 68.1346 16.3708 68.2543 16.5503L72.0977 22.3293C72.1055 22.3418 72.11 22.3561 72.1106 22.3708C72.1112 22.3855 72.108 22.4002 72.1011 22.4132C72.0943 22.4263 72.0842 22.4373 72.0718 22.4453C72.0593 22.4532 72.045 22.4577 72.0303 22.4584L69.0623 22.4696C68.9837 22.4696 68.922 22.4341 68.8771 22.363L66.4813 18.4411C66.3167 18.1718 66.1279 18.155 65.9147 18.3906C65.5668 18.7778 65.1965 18.9349 65.2077 19.5408C65.2301 20.4909 65.2264 21.426 65.1965 22.3462C65.1965 22.4247 65.1572 22.464 65.0787 22.464H62.6829C62.5969 22.464 62.5538 22.421 62.5538 22.3349V9.31809C62.5538 9.12732 62.6492 9.03194 62.84 9.03194L65.0113 9.02633C65.1497 9.02259 65.2189 9.09179 65.2189 9.23392L65.2133 15.7255C65.2133 16.0622 65.3293 16.1089 65.5612 15.8658Z" fill="#04050B"/>
<path id="Vector_12" d="M10.189 13.0155C11.1806 13.0155 11.9844 12.2117 11.9844 11.2201C11.9844 10.2285 11.1806 9.42468 10.189 9.42468C9.1974 9.42468 8.39355 10.2285 8.39355 11.2201C8.39355 12.2117 9.1974 13.0155 10.189 13.0155Z" fill="#FEFEFE"/>
<path id="Vector_13" d="M84.2841 14.4519L83.4369 14.5416C83.3865 14.5472 83.3355 14.5422 83.2872 14.5269C83.239 14.5117 83.1946 14.4865 83.1569 14.4531C83.1193 14.4197 83.0893 14.3788 83.0689 14.3332C83.0485 14.2875 83.0381 14.2381 83.0385 14.1882V13.0267C83.0348 12.7799 83.1564 12.6621 83.4032 12.6733L84.3234 12.7069C84.5478 12.7144 84.66 12.6059 84.66 12.3815L84.632 10.0194C84.632 9.8623 84.7105 9.78375 84.8676 9.78375L87.1119 9.80619C87.2503 9.80619 87.3176 9.87539 87.3139 10.0138L87.2466 12.404C87.2458 12.4425 87.2528 12.4808 87.2672 12.5165C87.2816 12.5522 87.3031 12.5847 87.3303 12.612C87.3576 12.6392 87.39 12.6607 87.4258 12.6751C87.4615 12.6895 87.4998 12.6965 87.5383 12.6957L88.941 12.6789C89.0169 12.6789 89.0897 12.709 89.1433 12.7627C89.197 12.8164 89.2272 12.8891 89.2272 12.965L89.2159 14.3228C89.2159 14.4837 89.1355 14.5585 88.9747 14.5473L87.6618 14.4743C87.3812 14.4593 87.2428 14.5921 87.2466 14.8727C87.2802 16.4474 87.2858 17.8781 87.2634 19.1649C87.2447 20.3169 87.8469 20.7134 89.0701 20.3543C89.1636 20.3282 89.2103 20.3637 89.2103 20.4609L89.2272 22.3237C89.2272 22.4023 89.186 22.4471 89.1037 22.4584C87.5552 22.6603 84.6769 22.7557 84.66 20.5844C84.6451 18.8151 84.6413 16.8794 84.6488 14.7773C84.6488 14.5342 84.5272 14.4257 84.2841 14.4519Z" fill="#04050B"/>
<path id="Vector_14" d="M108.713 12.3254L108.696 9.98014C108.696 9.8567 108.76 9.79498 108.887 9.79498L111.216 9.8062C111.24 9.80619 111.264 9.81102 111.286 9.82039C111.308 9.82976 111.328 9.84349 111.345 9.86076C111.361 9.87803 111.375 9.89849 111.383 9.92093C111.392 9.94336 111.396 9.96731 111.395 9.99136L111.345 12.3871C111.341 12.5891 111.442 12.6901 111.648 12.6901L113.062 12.6845C113.252 12.6808 113.346 12.7743 113.342 12.965L113.325 14.1826C113.322 14.4257 113.2 14.5416 112.961 14.5304L111.665 14.4799C111.625 14.4784 111.586 14.485 111.549 14.4993C111.513 14.5135 111.479 14.5352 111.451 14.563C111.423 14.5907 111.4 14.624 111.385 14.6608C111.369 14.6977 111.362 14.7373 111.362 14.7773L111.378 19.726C111.378 19.8405 111.41 19.9527 111.471 20.0499C111.531 20.1471 111.618 20.2254 111.721 20.2758C112.14 20.4778 112.637 20.5171 113.213 20.3936C113.226 20.3901 113.239 20.3896 113.252 20.3922C113.265 20.3948 113.277 20.4005 113.288 20.4087C113.298 20.4169 113.306 20.4274 113.312 20.4394C113.318 20.4514 113.32 20.4646 113.32 20.4778L113.337 22.3293C113.337 22.4079 113.297 22.4509 113.219 22.4584C111.485 22.6547 108.719 22.8343 108.713 20.3263C108.702 18.4935 108.704 16.6718 108.719 14.8615C108.723 14.566 108.577 14.4332 108.281 14.4631L107.456 14.5473C107.225 14.5697 107.107 14.4631 107.103 14.2274L107.092 13.0043C107.092 12.7911 107.198 12.6845 107.412 12.6845H108.36C108.407 12.6845 108.453 12.6752 108.496 12.6571C108.54 12.639 108.579 12.6124 108.612 12.579C108.645 12.5456 108.671 12.5059 108.688 12.4624C108.705 12.4189 108.714 12.3723 108.713 12.3254Z" fill="#04050B"/>
<path id="Vector_15" d="M128.766 14.8334L128.783 19.7091C128.783 19.82 128.813 19.9293 128.87 20.0258C128.928 20.1224 129.01 20.2028 129.108 20.259C129.508 20.4834 129.995 20.5264 130.567 20.388C130.587 20.3829 130.607 20.3824 130.628 20.3864C130.648 20.3905 130.666 20.3991 130.683 20.4115C130.699 20.424 130.712 20.4399 130.721 20.4582C130.73 20.4765 130.735 20.4966 130.735 20.5171L130.73 22.3293C130.73 22.4116 130.69 22.4565 130.612 22.464C128.8 22.666 126.118 22.8118 126.118 20.2365C126.118 18.3812 126.123 16.5765 126.135 14.8222C126.135 14.5566 126.004 14.4369 125.742 14.4631L124.805 14.5529C124.636 14.5678 124.55 14.4911 124.547 14.3228L124.519 12.9819C124.515 12.7761 124.616 12.6751 124.822 12.6789L125.832 12.6901C126.034 12.6938 126.133 12.5947 126.129 12.3927L126.112 10.0082C126.112 9.86231 126.183 9.78937 126.325 9.78937L128.609 9.8062C128.732 9.8062 128.794 9.86792 128.794 9.99135L128.755 12.3984C128.755 12.5966 128.854 12.6938 129.052 12.6901L130.46 12.6789C130.651 12.6789 130.745 12.7743 130.741 12.965L130.718 14.2611C130.718 14.4594 130.617 14.5529 130.416 14.5416L129.142 14.4743C128.891 14.4631 128.766 14.5828 128.766 14.8334Z" fill="#04050B"/>
<path id="Vector_16" d="M185.642 20.36C186.068 20.461 186.483 20.4778 186.887 20.4105C187.108 20.3731 187.216 20.4647 187.213 20.6854L187.19 22.1105C187.183 22.3649 187.052 22.4976 186.798 22.5089C184.974 22.5818 182.449 22.7501 182.5 20.0906C182.537 18.1867 182.545 16.4343 182.522 14.8334C182.518 14.6202 182.412 14.4986 182.202 14.4687C181.922 14.4313 181.632 14.45 181.333 14.5248C181.071 14.5884 180.94 14.4874 180.94 14.2218L180.934 13.1165C180.934 13.0049 180.979 12.8979 181.058 12.819C181.136 12.7401 181.244 12.6957 181.355 12.6957L182.242 12.6901C182.455 12.6864 182.56 12.5798 182.556 12.3703L182.505 9.97453C182.505 9.86605 182.56 9.80994 182.668 9.8062L185.053 9.79498C185.077 9.79497 185.1 9.79979 185.123 9.80917C185.145 9.81854 185.165 9.83227 185.182 9.84954C185.198 9.86681 185.211 9.88727 185.22 9.9097C185.229 9.93214 185.233 9.95609 185.232 9.98014L185.176 12.3422C185.169 12.5816 185.284 12.6995 185.524 12.6957L186.814 12.6845C187.076 12.6808 187.205 12.8098 187.202 13.0716L187.19 14.177C187.19 14.4276 187.065 14.5454 186.814 14.5304L185.563 14.4575C185.32 14.4425 185.198 14.5566 185.198 14.7997L185.204 19.8101C185.204 20.1093 185.35 20.2926 185.642 20.36Z" fill="#04050B"/>
<path id="Vector_17" d="M49.739 18.0877C49.739 18.6837 49.6216 19.274 49.3935 19.8247C49.1654 20.3754 48.8311 20.8758 48.4096 21.2973C47.9881 21.7188 47.4877 22.0531 46.937 22.2812C46.3863 22.5093 45.796 22.6267 45.2 22.6267H44.291C43.6949 22.6267 43.1047 22.5093 42.554 22.2812C42.0033 22.0531 41.5029 21.7188 41.0814 21.2973C40.6599 20.8758 40.3256 20.3754 40.0975 19.8247C39.8694 19.274 39.752 18.6837 39.752 18.0877V17.0441C39.752 16.448 39.8694 15.8578 40.0975 15.307C40.3256 14.7563 40.6599 14.256 41.0814 13.8345C41.5029 13.413 42.0033 13.0786 42.554 12.8505C43.1047 12.6224 43.6949 12.505 44.291 12.505H45.2C45.796 12.505 46.3863 12.6224 46.937 12.8505C47.4877 13.0786 47.9881 13.413 48.4096 13.8345C48.8311 14.256 49.1654 14.7563 49.3935 15.307C49.6216 15.8578 49.739 16.448 49.739 17.0441V18.0877ZM44.7343 20.764C45.0526 20.7645 45.368 20.6825 45.6623 20.5226C45.9567 20.3626 46.2243 20.128 46.4499 19.8319C46.6754 19.5358 46.8546 19.1842 46.9771 18.7971C47.0996 18.41 47.163 17.9949 47.1637 17.5757C47.1644 17.1564 47.1025 16.7412 46.9813 16.3537C46.8602 15.9661 46.6823 15.6139 46.4577 15.317C46.2332 15.0202 45.9664 14.7846 45.6726 14.6236C45.3788 14.4627 45.0637 14.3795 44.7454 14.379C44.4271 14.3784 44.1118 14.4605 43.8175 14.6204C43.5231 14.7803 43.2555 15.015 43.0299 15.3111C42.8043 15.6071 42.6252 15.9588 42.5027 16.3459C42.3802 16.733 42.3168 17.148 42.3161 17.5673C42.3153 17.9865 42.3773 18.4018 42.4984 18.7893C42.6196 19.1769 42.7975 19.5291 43.022 19.8259C43.2466 20.1228 43.5134 20.3584 43.8072 20.5194C44.101 20.6803 44.416 20.7634 44.7343 20.764Z" fill="#04050B"/>
<path id="Vector_18" d="M54.5753 19.9841C54.7063 20.168 54.8742 20.3228 55.0683 20.4387C55.2624 20.5546 55.4785 20.629 55.7031 20.6574C57.0609 20.8332 57.895 20.231 58.2055 18.8507C58.2242 18.7572 58.2803 18.7123 58.3738 18.7161L60.6574 18.7385C60.7471 18.7385 60.7845 18.7834 60.7696 18.8732C60.3918 21.0352 59.1593 22.2789 57.0721 22.6043C49.4696 23.7938 49.161 12.0393 56.5223 12.477C58.7291 12.6079 60.1038 13.5916 60.6461 15.4282C60.7995 15.9406 60.6087 16.1875 60.0738 16.1688L58.486 16.1239C58.3065 16.1164 58.1774 16.0304 58.0989 15.8658C58.0128 15.69 57.9268 15.5124 57.8408 15.3328C57.3919 14.4014 56.051 14.2499 55.2599 14.6595C53.4195 15.6077 53.6103 18.6319 54.5753 19.9841Z" fill="#04050B"/>
<path id="Vector_19" d="M75.3126 18.5758C75.3687 19.3538 75.6642 19.913 76.1991 20.2534C77.4559 21.0576 78.6528 20.8425 79.7899 19.6081C79.8502 19.5442 79.9226 19.4934 80.0027 19.4586C80.0828 19.4239 80.1689 19.406 80.2556 19.4062L81.8042 19.4118C82.0585 19.4155 82.1408 19.5352 82.051 19.7709C81.4189 21.3867 80.3192 22.3181 78.7519 22.565C70.3303 23.8835 70.9418 11.2987 78.4994 12.533C81.1533 12.9651 82.3821 15.4001 82.3708 17.9025C82.3694 17.9878 82.335 18.0691 82.2752 18.1289C82.2154 18.1888 82.1349 18.2223 82.051 18.2223H75.6436C75.4042 18.2223 75.2939 18.3401 75.3126 18.5758ZM75.4136 16.5335L79.543 16.5223C79.5534 16.5223 79.5636 16.5202 79.5731 16.5163C79.5826 16.5123 79.5913 16.5065 79.5986 16.4992C79.6059 16.492 79.6117 16.4833 79.6156 16.4738C79.6196 16.4642 79.6216 16.454 79.6216 16.4437V16.3932C79.6209 16.137 79.566 15.8835 79.4598 15.6472C79.3536 15.4109 79.1984 15.1965 79.0029 15.0161C78.8075 14.8358 78.5756 14.6931 78.3208 14.5963C78.0659 14.4995 77.7929 14.4504 77.5176 14.4519H77.4166C76.8626 14.4549 76.3324 14.6621 75.9422 15.0282C75.5521 15.3942 75.3337 15.8891 75.335 16.4044V16.4549C75.335 16.4652 75.337 16.4755 75.341 16.485C75.3449 16.4945 75.3507 16.5032 75.358 16.5105C75.3653 16.5178 75.374 16.5236 75.3835 16.5275C75.393 16.5314 75.4032 16.5335 75.4136 16.5335Z" fill="#04050B"/>
<path id="Vector_20" d="M120.535 21.7627C118.644 22.997 114.621 23.3673 114.24 20.2983C113.802 16.8196 117.427 16.786 119.806 16.4998C119.985 16.4797 120.156 16.4089 120.297 16.2957C120.438 16.1824 120.544 16.0314 120.602 15.8602C120.86 15.1027 120.389 14.4126 119.615 14.2668C118.298 14.0161 117.479 14.4295 117.157 15.5067C117.12 15.6376 117.032 15.7031 116.894 15.7031L114.599 15.7199C114.583 15.72 114.566 15.7167 114.552 15.7103C114.537 15.7039 114.523 15.6944 114.513 15.6827C114.502 15.671 114.494 15.6572 114.49 15.6423C114.485 15.6274 114.484 15.6118 114.487 15.5965C114.84 12.1908 119.121 12.0673 121.618 12.836C122.936 13.2456 123.419 14.4014 123.352 15.6863C123.228 18.0764 123.273 20.2272 123.486 22.1386C123.512 22.3518 123.417 22.4603 123.2 22.464L121.315 22.4752C121.109 22.4752 120.971 22.3798 120.9 22.1891C120.87 22.103 120.853 22.0151 120.849 21.9254C120.838 21.6897 120.733 21.6355 120.535 21.7627ZM117.965 20.8818C119.828 21.1324 120.735 20.2627 120.686 18.2728C120.679 17.9885 120.535 17.8707 120.254 17.9193L117.803 18.3682C117.554 18.4137 117.328 18.5393 117.157 18.7257C116.987 18.9121 116.883 19.1491 116.86 19.4006C116.778 20.2796 117.146 20.7733 117.965 20.8818Z" fill="#04050B"/>
<path id="Vector_21" d="M134.22 18.5926C134.472 21.0838 137.193 21.2857 138.708 19.6081C138.832 19.4735 138.987 19.4062 139.174 19.4062L140.689 19.4174C140.966 19.4174 141.053 19.5464 140.952 19.8045C140.148 21.8468 138.529 22.8006 136.094 22.666C129.119 22.2732 130.64 10.9676 137.608 12.5723C139.883 13.096 141.111 14.811 141.295 17.7173C141.317 18.054 141.16 18.2223 140.823 18.2223H134.556C134.309 18.2223 134.197 18.3457 134.22 18.5926ZM134.337 16.5335L138.456 16.5222C138.478 16.5222 138.499 16.5134 138.515 16.4976C138.531 16.4818 138.54 16.4604 138.54 16.4381V16.3932C138.539 16.137 138.484 15.8835 138.378 15.6472C138.273 15.4109 138.118 15.1964 137.923 15.0161C137.728 14.8358 137.497 14.6931 137.242 14.5963C136.988 14.4995 136.716 14.4504 136.441 14.4519H136.329C135.777 14.4549 135.248 14.6621 134.859 15.0281C134.47 15.3941 134.252 15.8891 134.253 16.4044V16.4493C134.253 16.4716 134.262 16.493 134.278 16.5088C134.294 16.5246 134.315 16.5335 134.337 16.5335Z" fill="#04050B"/>
<path id="Vector_22" d="M145.789 13.6776L146.283 13.1502C146.338 13.0944 146.405 13.0452 146.479 13.0043C148.349 12.0094 149.898 12.2581 151.125 13.7506C151.241 13.8927 151.362 13.8983 151.489 13.7674C152.828 12.3385 154.396 12.0449 156.191 12.8865C157.194 13.3578 157.702 14.2349 157.717 15.5179C157.747 17.7173 157.751 19.9373 157.728 22.1778C157.725 22.3724 157.626 22.4696 157.431 22.4696L155.305 22.464C155.155 22.464 155.08 22.3892 155.08 22.2396L155.086 16.2193C155.086 15.3477 154.665 14.7998 153.823 14.5753C153.692 14.5417 153.556 14.5323 153.414 14.5473C152.236 14.6595 151.646 15.3066 151.646 16.4886L151.635 22.2003C151.635 22.2702 151.607 22.3373 151.558 22.3868C151.508 22.4362 151.441 22.464 151.371 22.464L149.239 22.4584C149.075 22.4584 148.993 22.3742 148.993 22.2059L148.987 15.8826C148.987 15.6979 148.948 15.5152 148.874 15.3461C148.8 15.1769 148.691 15.0251 148.555 14.9001C148.419 14.7751 148.258 14.6797 148.084 14.62C147.909 14.5602 147.723 14.5374 147.539 14.5529L147.264 14.5753C146.804 14.6148 146.375 14.8259 146.064 15.1669C145.752 15.5078 145.58 15.9536 145.581 16.4156L145.598 22.1274C145.598 22.3443 145.49 22.4546 145.273 22.4584L143.197 22.4696C143.017 22.4696 142.927 22.378 142.927 22.1947V13.1109C142.927 12.8267 143.068 12.6845 143.348 12.6845L145.082 12.6789C145.166 12.6789 145.247 12.7123 145.308 12.7719C145.369 12.8316 145.404 12.9129 145.407 12.9987L145.424 13.5373C145.435 13.8702 145.557 13.917 145.789 13.6776Z" fill="#04050B"/>
<path id="Vector_23" d="M162.84 18.2223C162.021 18.2223 161.82 18.5739 162.239 19.2771C162.333 19.4342 162.404 19.5539 162.453 19.6362C162.883 20.3544 163.517 20.7097 164.355 20.7022C165.297 20.6947 166.012 20.3394 166.498 19.6362C166.603 19.4828 166.747 19.4061 166.93 19.4061L168.63 19.4118C168.828 19.4118 168.896 19.5071 168.832 19.6979C168.252 21.3662 167.096 22.3349 165.365 22.6043C158.166 23.7208 157.33 13.4139 163.569 12.5218C167.121 12.0168 169.141 14.6146 169.129 17.9081C169.129 17.9914 169.097 18.0713 169.039 18.1303C168.981 18.1892 168.903 18.2223 168.821 18.2223H162.84ZM162.211 16.5615L166.285 16.5166C166.309 16.5166 166.331 16.5072 166.348 16.4903C166.365 16.4735 166.375 16.4507 166.375 16.4269V16.3764C166.372 16.1191 166.316 15.865 166.21 15.6285C166.105 15.392 165.951 15.1777 165.759 14.998C165.567 14.8182 165.339 14.6765 165.09 14.5809C164.84 14.4852 164.573 14.4376 164.304 14.4407H164.147C163.604 14.4468 163.086 14.6589 162.706 15.0303C162.326 15.4017 162.116 15.9021 162.122 16.4212V16.4717C162.122 16.4835 162.124 16.4952 162.128 16.5061C162.133 16.517 162.14 16.5269 162.148 16.5352C162.156 16.5436 162.166 16.5502 162.177 16.5547C162.188 16.5592 162.2 16.5615 162.211 16.5615Z" fill="#04050B"/>
<path id="Vector_24" d="M173.601 13.571C175.773 11.6128 179.633 12.0954 179.75 15.6413C179.833 18.1587 179.851 20.3824 179.807 22.3125C179.803 22.406 179.754 22.4527 179.661 22.4527L177.36 22.464C177.229 22.464 177.164 22.3985 177.164 22.2676L177.136 16.1351C177.132 15.0952 176.61 14.5753 175.571 14.5753H175.234C173.992 14.5753 173.369 15.1962 173.366 16.4381L173.36 22.2788C173.36 22.4022 173.298 22.464 173.175 22.464L170.858 22.4696C170.738 22.4696 170.678 22.4097 170.678 22.29L170.689 12.9706C170.689 12.7799 170.786 12.6845 170.981 12.6845L172.911 12.6901C173.158 12.6901 173.263 12.8117 173.225 13.0548L173.186 13.3465C173.119 13.8029 173.257 13.8777 173.601 13.571Z" fill="#04050B"/>
<path id="Vector_25" d="M191.022 14.7324C190.95 14.844 190.905 14.9713 190.893 15.1038C190.88 15.2363 190.899 15.3701 190.949 15.4938C191 15.6175 191.079 15.7276 191.18 15.8148C191.282 15.902 191.403 15.9637 191.533 15.9948C192.812 16.3016 194.026 16.6307 195.174 16.9823C196.293 17.3227 196.897 18.0166 196.986 19.0639C197.149 21.0164 195.819 22.2845 193.974 22.565C191.432 22.9521 188.352 22.4921 187.97 19.4342C187.955 19.3295 188 19.2771 188.105 19.2771L190.327 19.2715C190.364 19.2711 190.4 19.2829 190.43 19.3051C190.46 19.3273 190.483 19.3587 190.495 19.3949C190.873 20.734 191.838 21.1997 193.39 20.792C194 20.6312 194.301 20.2683 194.293 19.7035C194.29 19.4789 194.213 19.2618 194.074 19.0861C193.935 18.9105 193.742 18.7863 193.525 18.7329C192.339 18.4411 191.196 18.1344 190.097 17.8127C188.649 17.39 188.039 16.4362 188.267 14.9513C188.671 12.2974 192.273 12.2244 194.198 12.6509C195.429 12.9239 196.266 13.7075 196.712 15.0017C196.733 15.0656 196.739 15.1338 196.73 15.2004C196.72 15.2671 196.694 15.3303 196.655 15.3848C196.616 15.4392 196.565 15.4833 196.505 15.5133C196.446 15.5433 196.38 15.5584 196.313 15.5572L194.692 15.5404C194.449 15.5366 194.277 15.4244 194.176 15.2037C193.839 14.4594 193.124 14.1302 192.032 14.2163C191.557 14.2537 191.221 14.4257 191.022 14.7324Z" fill="#04050B"/>
<path id="Vector_26" d="M12.3211 25.9483L10.4191 31.3009C10.348 31.5029 10.2601 31.5104 10.1554 31.3233C9.22401 29.6439 8.5339 27.854 8.08504 25.9539C7.71847 24.6148 7.66985 23.2009 7.93916 21.7122C7.96003 21.5903 8.01941 21.4785 8.10841 21.3936C8.19742 21.3086 8.31126 21.255 8.4329 21.2409C9.40917 21.1212 10.2489 21.0632 10.9521 21.0669C11.9882 21.0707 12.51 21.6205 12.5175 22.7165C12.525 23.8125 12.4595 24.8897 12.3211 25.9483ZM9.8468 22.8287C9.84306 22.5257 9.73646 22.2732 9.52699 22.0713C9.21279 21.772 9.0744 21.8375 9.1118 22.2676C9.2502 23.8648 9.49707 25.361 9.85241 26.7562C10.1292 27.8297 10.3854 27.8241 10.6211 26.7394C10.8717 25.5948 11.0531 24.4539 11.1653 23.3168C11.199 23.0026 11.0643 22.8923 10.7613 22.9858C10.5855 23.0382 10.4041 23.0849 10.2171 23.1261C9.97772 23.1784 9.85429 23.0793 9.8468 22.8287Z" fill="#04050B"/>
<path id="Vector_27" d="M10.217 23.1261C10.404 23.085 10.5854 23.0382 10.7612 22.9858C11.0642 22.8923 11.1989 23.0027 11.1652 23.3169C11.053 24.454 10.8716 25.5948 10.621 26.7394C10.3853 27.8241 10.1291 27.8298 9.8523 26.7562C9.49695 25.361 9.25008 23.8649 9.11168 22.2677C9.07428 21.8375 9.21268 21.7721 9.52688 22.0713C9.73634 22.2733 9.84295 22.5258 9.84669 22.8287C9.85417 23.0794 9.9776 23.1785 10.217 23.1261Z" fill="#ECF14A"/>
</g>
</svg>
