<svg width="130" height="32" viewBox="0 0 130 32" fill="none" xmlns="http://www.w3.org/2000/svg">
<g id="Group 116">
<path id="Vector" d="M6.6781 0.596302L26.509 12.0437C27.1858 12.4345 27.7479 12.9965 28.1387 13.6734C28.5295 14.3502 28.7352 15.118 28.7352 15.8996C28.7352 16.6812 28.5295 17.449 28.1387 18.1258C27.7479 18.8027 27.1858 19.3647 26.509 19.7555L6.6781 31.2029C6.00127 31.5936 5.23352 31.7992 4.45203 31.7992C3.67053 31.7991 2.90281 31.5934 2.22602 31.2026C1.54924 30.8118 0.987233 30.2498 0.596487 29.573C0.20574 28.8962 1.92322e-05 28.1285 0 27.347V4.45218C1.92322e-05 3.67068 0.20574 2.90295 0.596487 2.22615C0.987233 1.54936 1.54924 0.987331 2.22602 0.596561C2.90281 0.205792 3.67053 4.5398e-05 4.45203 7.51199e-09C5.23352 -4.5383e-05 6.00127 0.205611 6.6781 0.596302ZM5.79966 2.11144C5.38929 1.87459 4.9238 1.74993 4.44997 1.74998C3.97615 1.75004 3.51069 1.87482 3.10038 2.11177C2.69006 2.34872 2.34934 2.68951 2.11246 3.09987C1.87559 3.51023 1.7509 3.97571 1.75093 4.44953V27.3496C1.7509 27.8235 1.87559 28.289 2.11246 28.6993C2.34934 29.1097 2.69006 29.4505 3.10038 29.6874C3.51069 29.9244 3.97615 30.0491 4.44997 30.0492C4.9238 30.0493 5.38929 29.9246 5.79966 29.6877L25.6352 18.2377C26.0457 18.0008 26.3866 17.66 26.6236 17.2496C26.8607 16.8392 26.9855 16.3736 26.9855 15.8996C26.9855 15.4256 26.8607 14.96 26.6236 14.5496C26.3866 14.1392 26.0457 13.7984 25.6352 13.5615L5.79966 2.11144Z" fill="#6466F1"/>
<path id="Vector_2" d="M8.87554 5.68528L3.42527 5.59546C3.41983 5.59532 3.41451 5.59386 3.40976 5.59122C3.40502 5.58858 3.40097 5.58482 3.39799 5.58028C3.395 5.57574 3.39316 5.57054 3.39262 5.56513C3.39208 5.55973 3.39286 5.55427 3.39489 5.54922C3.75154 4.67475 4.38296 4.17961 5.28914 4.06381C5.85319 3.99181 6.34062 4.16222 6.84589 4.45745C7.56449 4.87752 8.24632 5.2727 8.89139 5.64301C8.94246 5.67251 8.93718 5.6866 8.87554 5.68528Z" fill="#6466F1"/>
<path id="Vector_3" d="M9.83455 6.46067L9.73548 6.33584C9.68924 6.27683 9.70334 6.25129 9.77775 6.25922C9.88409 6.27111 9.99307 6.27771 10.0875 6.33253C10.9083 6.80676 11.7319 7.28252 12.5584 7.75983C12.5923 7.7792 12.5896 7.78889 12.5504 7.78889C12.1352 7.78537 11.5564 7.77216 10.814 7.74926C10.7546 7.74706 10.6996 7.73759 10.6489 7.72086C10.6371 7.71705 10.6266 7.71019 10.6185 7.701C10.6103 7.69182 10.6049 7.68065 10.6027 7.66868C10.5842 7.57005 10.5256 7.51985 10.427 7.51809C8.06513 7.47318 5.69115 7.42937 3.30506 7.38666C3.2782 7.38622 3.26477 7.37257 3.26477 7.34571V6.43359C3.26477 6.42818 3.26585 6.42283 3.26796 6.41786C3.27007 6.41288 3.27315 6.40838 3.27703 6.40462C3.28092 6.40086 3.28551 6.39792 3.29056 6.39598C3.2956 6.39403 3.30098 6.39312 3.30638 6.3933L9.81209 6.50558C9.85084 6.50646 9.85833 6.49149 9.83455 6.46067Z" fill="#6466F1"/>
<path id="Vector_4" d="M71.5807 7.88401C72.8933 8.49121 74.028 9.42557 74.9849 10.6871C75.0038 10.7117 75.0007 10.7331 74.9756 10.7512L72.5464 12.5067C72.5423 12.5096 72.5373 12.5108 72.5323 12.5101C72.5274 12.5093 72.523 12.5067 72.5199 12.5027C71.9902 11.804 71.3498 11.2456 70.5986 10.8278C66.5915 8.59997 61.7489 11.8224 62.0474 16.3355C62.1537 17.9497 62.9767 19.4054 64.2336 20.4252C65.2001 21.2089 66.3154 21.6299 67.5796 21.688C69.6389 21.7831 71.5471 20.8168 72.7478 19.1604C72.761 19.1423 72.7771 19.1397 72.796 19.1524L75.2477 20.8155C75.252 20.8184 75.2556 20.8221 75.2584 20.8264C75.2612 20.8307 75.2631 20.8356 75.264 20.8407C75.2649 20.8458 75.2649 20.851 75.2638 20.8561C75.2627 20.8612 75.2606 20.866 75.2576 20.8703C74.0441 22.6219 72.4052 23.802 70.341 24.4105C69.9205 24.5342 69.4883 24.6205 69.0445 24.6694C68.2009 24.7623 67.438 24.7665 66.7559 24.682C64.4949 24.4015 62.6114 23.3894 61.1056 21.6457C59.6305 19.9382 58.9251 17.9233 58.9894 15.601C59.0706 12.6725 60.5778 10.086 63.0097 8.4758C65.5347 6.80281 68.8298 6.61127 71.5807 7.88401Z" fill="#04050B"/>
<path id="Vector_5" d="M38.5521 20.9918C38.9788 21.1684 39.3898 21.2433 39.7852 21.2164C40.6029 21.1609 41.3275 20.6979 41.6121 19.9232C41.8215 19.3539 41.7277 18.7139 41.375 18.2251C41.2185 18.0085 41.0058 17.8671 40.803 17.698C40.7238 17.632 40.6362 17.5769 40.5402 17.5329C40.1972 17.3744 39.868 17.2568 39.5528 17.1802C38.9434 17.0323 38.4231 16.868 37.992 16.6875C37.4289 16.4519 36.8904 16.097 36.3765 15.6228C35.5298 14.8421 34.9915 13.7101 34.8865 12.5661C34.7729 11.3251 35.2755 10.0385 36.0833 9.1455C37.3283 7.76972 39.1954 7.29021 40.9926 7.72283C42.4294 8.06848 43.5275 8.89099 44.2871 10.1904C44.2985 10.2102 44.2941 10.2256 44.2739 10.2366L41.6518 11.6632C41.6284 11.676 41.6093 11.6714 41.5943 11.6494C41.1826 11.0536 40.6183 10.7172 39.9015 10.6402C39.1802 10.5631 38.6129 10.8165 38.1994 11.4004C37.9432 11.7617 37.8633 12.399 38.0535 12.8112C38.385 13.5278 39.0217 13.862 39.7403 14.0628C40.1991 14.1913 40.6496 14.3234 41.0917 14.459C42.0084 14.7391 42.766 15.2714 43.4265 15.9445C44.3412 16.8764 44.8769 18.2726 44.7791 19.5791C44.6893 20.7715 44.24 21.8086 43.4311 22.6906C41.6359 24.6483 38.4379 24.7295 36.327 23.2289C35.1025 22.3584 34.3821 21.1534 34.1659 19.6141C34.1628 19.5938 34.1714 19.5824 34.1917 19.5797L37.1466 19.1696C37.1691 19.1665 37.1827 19.176 37.1876 19.198C37.2563 19.4952 37.3415 19.8188 37.5046 20.081C37.771 20.5099 38.1202 20.8135 38.5521 20.9918Z" fill="#04050B"/>
<path id="Vector_6" d="M79.2534 21.2237C79.253 21.2643 79.273 21.2845 79.3135 21.2845H85.2942C85.3175 21.2845 85.3292 21.2962 85.3292 21.3195L85.3279 24.3135C85.3279 24.3412 85.314 24.3551 85.2863 24.3551L76.2476 24.3557C76.2357 24.3557 76.2243 24.351 76.2158 24.3426C76.2074 24.3342 76.2027 24.3227 76.2027 24.3108L76.1987 7.64629C76.1987 7.59389 76.2249 7.56769 76.2773 7.56769L85.2895 7.56967C85.3004 7.56967 85.3108 7.57392 85.3185 7.58147C85.3262 7.58903 85.3305 7.59927 85.3305 7.60996V10.5656C85.3305 10.5925 85.3171 10.6061 85.2902 10.6066C83.4845 10.6123 81.6635 10.6121 79.8274 10.6059C79.6425 10.6054 79.4624 10.6107 79.2871 10.6217C79.28 10.6221 79.2733 10.6251 79.2684 10.6301C79.2634 10.6352 79.2607 10.6419 79.2607 10.6488L79.2627 14.4697C79.2627 14.4957 79.2755 14.5091 79.301 14.51C79.415 14.5153 79.5333 14.5183 79.6557 14.5192C81.0898 14.5249 82.4583 14.5256 83.7612 14.5212C83.7686 14.5212 83.7758 14.5242 83.7811 14.5295C83.7864 14.5348 83.7894 14.542 83.7896 14.5496V17.5535C83.7896 17.5598 83.7871 17.5658 83.7826 17.5703C83.7782 17.5747 83.7721 17.5772 83.7658 17.5772L79.297 17.5746C79.2688 17.5746 79.255 17.5889 79.2554 17.6175C79.2682 18.813 79.2675 20.0151 79.2534 21.2237Z" fill="#04050B"/>
<path id="Vector_7" d="M123.951 21.2844H129.974C129.981 21.2844 129.987 21.2872 129.992 21.2922C129.997 21.2971 130 21.3038 130 21.3109L129.995 24.3292C129.995 24.3363 129.993 24.343 129.988 24.3479C129.983 24.3529 129.976 24.3557 129.969 24.3557L120.895 24.355C120.888 24.355 120.882 24.3522 120.877 24.3473C120.872 24.3423 120.869 24.3356 120.869 24.3286L120.87 7.59338C120.87 7.58637 120.873 7.57965 120.878 7.57469C120.883 7.56974 120.89 7.56696 120.897 7.56696L129.968 7.5696C129.972 7.5696 129.975 7.57028 129.978 7.57161C129.982 7.57294 129.985 7.57488 129.987 7.57734C129.989 7.57979 129.991 7.5827 129.993 7.58591C129.994 7.58911 129.995 7.59255 129.995 7.59602L129.996 10.5814C129.996 10.5884 129.993 10.5951 129.988 10.6001C129.983 10.605 129.977 10.6078 129.97 10.6078L123.951 10.6111C123.948 10.6111 123.944 10.6118 123.941 10.6131C123.938 10.6144 123.935 10.6164 123.933 10.6188C123.93 10.6213 123.928 10.6242 123.927 10.6274C123.926 10.6306 123.925 10.6341 123.925 10.6375V14.4967C123.925 14.5037 123.928 14.5104 123.933 14.5154C123.938 14.5203 123.944 14.5231 123.951 14.5231L128.412 14.5238C128.419 14.5238 128.426 14.5266 128.431 14.5315C128.436 14.5365 128.439 14.5432 128.439 14.5502L128.439 17.5494C128.439 17.5564 128.437 17.5632 128.432 17.5681C128.427 17.5731 128.42 17.5758 128.413 17.5758L123.951 17.5765C123.944 17.5765 123.938 17.5793 123.933 17.5842C123.928 17.5892 123.925 17.5959 123.925 17.6029V21.258C123.925 21.265 123.928 21.2717 123.933 21.2767C123.938 21.2817 123.944 21.2844 123.951 21.2844Z" fill="#04050B"/>
<path id="Vector_8" d="M54.2959 21.2858V24.2817C54.2959 24.2905 54.2924 24.2989 54.2862 24.3051C54.28 24.3113 54.2716 24.3148 54.2629 24.3148L45.6859 24.3544C45.6771 24.3544 45.6687 24.3509 45.6626 24.3447C45.6564 24.3385 45.6529 24.3301 45.6529 24.3214L45.6522 7.62842C45.6522 7.61966 45.6557 7.61126 45.6619 7.60507C45.6681 7.59888 45.6765 7.5954 45.6852 7.5954L48.6633 7.59804C48.6721 7.59804 48.6805 7.60152 48.6867 7.60771C48.6929 7.6139 48.6964 7.6223 48.6964 7.63106L48.6957 21.2191C48.6957 21.2278 48.6992 21.2362 48.7054 21.2424C48.7116 21.2486 48.72 21.2521 48.7287 21.2521L54.2629 21.2528C54.2716 21.2528 54.28 21.2563 54.2862 21.2624C54.2924 21.2686 54.2959 21.277 54.2959 21.2858Z" fill="#04050B"/>
<path id="Vector_9" d="M57.9173 7.59668H54.9346C54.9149 7.59668 54.8989 7.61265 54.8989 7.63235V24.32C54.8989 24.3397 54.9149 24.3557 54.9346 24.3557H57.9173C57.937 24.3557 57.953 24.3397 57.953 24.32V7.63235C57.953 7.61265 57.937 7.59668 57.9173 7.59668Z" fill="#04050B"/>
<path id="Vector_10" d="M89.5318 10.6363H86.4593C86.4495 10.6363 86.4401 10.6324 86.4331 10.6254C86.4262 10.6185 86.4223 10.6091 86.4223 10.5993L86.4216 7.63306C86.4216 7.62325 86.4255 7.61384 86.4325 7.6069C86.4394 7.59997 86.4488 7.59607 86.4586 7.59607L95.8506 7.59805C95.8604 7.59805 95.8698 7.60195 95.8768 7.60888C95.8837 7.61582 95.8876 7.62523 95.8876 7.63504L95.8863 10.5993C95.8863 10.6091 95.8824 10.6185 95.8755 10.6254C95.8685 10.6324 95.8591 10.6363 95.8493 10.6363H92.6618C92.652 10.6363 92.6426 10.6401 92.6357 10.6471C92.6287 10.654 92.6248 10.6634 92.6248 10.6732L92.6242 24.3161C92.6242 24.3259 92.6203 24.3353 92.6134 24.3422C92.6064 24.3492 92.597 24.3531 92.5872 24.3531L89.6058 24.3564C89.596 24.3564 89.5866 24.3525 89.5796 24.3455C89.5727 24.3386 89.5688 24.3292 89.5688 24.3194V10.6732C89.5688 10.6634 89.5649 10.654 89.558 10.6471C89.551 10.6401 89.5416 10.6363 89.5318 10.6363Z" fill="#04050B"/>
<path id="Vector_11" d="M96.98 16.0185C96.9804 13.1423 96.9818 10.3467 96.984 7.63174C96.984 7.60796 96.9956 7.59607 97.019 7.59607L99.9898 7.59739C100.002 7.59739 100.013 7.60212 100.022 7.61055C100.03 7.61897 100.035 7.63039 100.035 7.6423C100.036 11.112 100.036 14.6724 100.036 18.3236C100.036 19.4596 100.354 20.4028 101.309 21.0712C102.233 21.7184 103.329 21.7336 104.298 21.1762C104.909 20.8255 105.396 20.2482 105.581 19.5923C105.699 19.1703 105.727 18.737 105.727 18.2958C105.725 14.8125 105.725 11.2608 105.727 7.64098C105.727 7.61148 105.742 7.59673 105.772 7.59673L108.76 7.59739C108.792 7.59739 108.809 7.61368 108.809 7.64627C108.808 10.9619 108.808 14.2971 108.807 17.6519C108.807 18.0864 108.793 18.5321 108.765 18.9887C108.678 20.4074 108.196 21.6134 107.318 22.6068C106.241 23.826 104.79 24.5387 103.17 24.6173C101.68 24.689 100.346 24.2529 99.1688 23.3089C97.9185 22.3062 97.1583 20.8274 97.0025 19.237C96.9021 18.2212 96.98 17.1023 96.98 16.0185Z" fill="#04050B"/>
<path id="Vector_12" d="M118.105 15.5879C118.898 16.3575 119.392 17.2813 119.586 18.3592C120.093 21.1649 118.197 23.7745 115.439 24.2507C115.094 24.3101 114.679 24.3359 114.194 24.328C113.759 24.3209 113.33 24.3198 112.905 24.3247C112.766 24.3267 112.631 24.3471 112.491 24.3484C111.537 24.3577 110.604 24.359 109.692 24.3524C109.664 24.3524 109.649 24.3379 109.649 24.3088V7.6324C109.649 7.60862 109.661 7.59673 109.684 7.59673C110.871 7.59541 111.826 7.59607 112.55 7.59871C112.657 7.59937 112.761 7.62381 112.869 7.62513C113.342 7.63173 113.79 7.63173 114.211 7.62513C114.695 7.61808 115.086 7.64539 115.383 7.70703C118.984 8.45601 120.478 12.6983 118.103 15.5264C118.084 15.548 118.085 15.5685 118.105 15.5879ZM112.701 10.7188L112.707 14.0952C112.707 14.1017 112.708 14.1081 112.711 14.1141C112.713 14.1201 112.717 14.1255 112.722 14.13C112.726 14.1346 112.732 14.1381 112.738 14.1405C112.744 14.1429 112.75 14.1441 112.757 14.1441L114.44 14.1414C114.9 14.1405 115.341 13.9601 115.665 13.6398C115.989 13.3195 116.171 12.8855 116.17 12.4334V12.3674C116.17 12.1435 116.125 11.9219 116.037 11.7152C115.95 11.5086 115.822 11.3209 115.66 11.1629C115.499 11.0049 115.308 10.8797 115.097 10.7945C114.887 10.7092 114.661 10.6655 114.434 10.666L112.75 10.6686C112.744 10.6687 112.737 10.6701 112.731 10.6726C112.725 10.6752 112.72 10.6789 112.715 10.6836C112.711 10.6883 112.707 10.6938 112.705 10.6998C112.702 10.7058 112.701 10.7123 112.701 10.7188ZM112.715 17.2668L112.693 21.2376C112.693 21.2427 112.694 21.2478 112.696 21.2525C112.698 21.2572 112.701 21.2615 112.705 21.2651C112.708 21.2688 112.713 21.2716 112.717 21.2736C112.722 21.2756 112.727 21.2766 112.732 21.2766L114.521 21.2858C114.791 21.2872 115.058 21.2364 115.308 21.1361C115.558 21.0359 115.785 20.8882 115.977 20.7016C116.169 20.515 116.321 20.293 116.426 20.0484C116.53 19.8038 116.585 19.5413 116.586 19.276V19.268C116.589 18.7322 116.375 18.2172 115.992 17.8364C115.609 17.4555 115.087 17.2399 114.542 17.2371L112.754 17.2278C112.743 17.2278 112.733 17.2319 112.726 17.2392C112.719 17.2465 112.715 17.2565 112.715 17.2668Z" fill="#04050B"/>
<path id="Vector_13" d="M10.8503 8.22813C10.8551 8.21008 10.8527 8.19357 10.843 8.1786C10.8232 8.14645 10.8322 8.12994 10.8701 8.12906C11.4465 8.11673 12.0698 8.11189 12.7399 8.11453C12.9678 8.11519 13.1712 8.11123 13.37 8.22615C14.1859 8.69729 14.9728 9.15302 15.7306 9.59334C15.7874 9.62637 15.783 9.64244 15.7174 9.64156C14.37 9.63055 13.2045 9.60677 12.2208 9.57023C11.8879 9.55746 11.5663 9.53544 11.2558 9.50418C11.1627 9.49493 11.1112 9.4236 11.0048 9.40973C10.4712 9.33796 9.85804 9.29723 9.16542 9.28754C7.2421 9.2598 5.29655 9.22744 3.32877 9.19045C3.31259 9.19028 3.29713 9.18366 3.28576 9.17203C3.27438 9.16041 3.268 9.14472 3.268 9.12836L3.26404 8.22813C3.26404 8.20039 3.27791 8.18674 3.30565 8.18718C5.36106 8.22285 7.41581 8.25874 9.46989 8.29484C9.81951 8.30101 10.2634 8.29198 10.8014 8.26776C10.8278 8.26688 10.8441 8.25367 10.8503 8.22813Z" fill="#6466F1"/>
<path id="Vector_14" d="M11.2003 9.99757L11.2136 9.96521C11.2215 9.94584 11.2358 9.93593 11.2565 9.93549C11.9126 9.92096 12.4749 9.91766 12.9434 9.92558C14.0745 9.94496 15.2006 9.96323 16.3217 9.9804C16.3798 9.98128 16.434 9.99625 16.4842 10.0253L18.9438 11.446C19.0046 11.4812 18.9997 11.4982 18.9293 11.4969C16.8118 11.4599 14.6837 11.4222 12.5451 11.3839C12.0834 11.3753 11.6244 11.3159 11.1647 11.2915C11.1413 11.2901 11.1297 11.2778 11.1297 11.2545V11.232C11.1297 11.2056 11.1165 11.1919 11.09 11.1911C10.958 11.1884 10.8217 11.1737 10.6812 11.1468C10.5628 11.1244 10.4355 11.112 10.2995 11.1098C7.87286 11.0671 5.54115 11.0268 3.30433 10.989C3.27791 10.9885 3.2647 10.9749 3.2647 10.948L3.26404 10.0273C3.26404 10.022 3.2651 10.0168 3.26716 10.012C3.26923 10.0071 3.27226 10.0027 3.27607 9.99904C3.27988 9.99535 3.2844 9.99244 3.28936 9.99049C3.29433 9.98854 3.29964 9.98758 3.30499 9.98767C5.41456 10.0286 7.55759 10.0669 9.73409 10.1026C10.1762 10.1101 10.552 10.094 10.8615 10.0544C10.958 10.0418 11.0478 10.0616 11.1389 10.0464C11.1525 10.0442 11.1652 10.0386 11.176 10.03C11.1867 10.0214 11.1951 10.0103 11.2003 9.99757Z" fill="#6466F1"/>
<path id="Vector_15" d="M10.6125 12.9697C10.2043 13.0001 9.77634 12.9122 9.40317 12.9036C7.52829 12.8609 5.50128 12.8226 3.32214 12.7887C3.28604 12.7883 3.26776 12.77 3.26732 12.7339L3.2627 11.8363C3.26261 11.83 3.2638 11.8237 3.2662 11.8178C3.2686 11.812 3.27215 11.8067 3.27666 11.8022C3.28116 11.7978 3.28652 11.7943 3.29241 11.792C3.2983 11.7897 3.30459 11.7886 3.31091 11.7887C5.42621 11.8288 7.56109 11.8645 9.71558 11.8957C10.0256 11.9001 10.3547 11.8788 10.703 11.8317C10.773 11.8224 10.8525 11.8226 10.9414 11.8323C10.9674 11.8354 10.9903 11.8284 11.0101 11.8112L11.0854 11.7471C11.1035 11.7313 11.1244 11.7236 11.1482 11.724C11.7895 11.726 12.4394 11.7115 13.0695 11.7227C15.1619 11.7601 17.3201 11.7978 19.5442 11.8356C19.5957 11.8365 19.6461 11.8503 19.6908 11.8759L22.2026 13.3276C22.2272 13.3422 22.2253 13.3494 22.1966 13.3494C21.8558 13.3499 21.5106 13.3468 21.161 13.3402C18.1638 13.2847 15.1603 13.2286 12.1508 13.1718C11.7377 13.1639 11.247 13.1385 10.6786 13.0958C10.6482 13.0936 10.6363 13.0778 10.6429 13.0483L10.6508 13.0139C10.6579 12.9818 10.6451 12.967 10.6125 12.9697Z" fill="#6466F1"/>
<path id="Vector_16" d="M10.3946 13.5516C10.4224 13.5353 10.4523 13.526 10.4845 13.5238C10.7055 13.508 10.9426 13.5009 11.1958 13.5027C11.9175 13.5084 12.6138 13.5168 13.2849 13.5278C16.3874 13.5806 19.4927 13.6333 22.6009 13.6857C22.7445 13.6879 22.8623 13.7127 22.9543 13.7603C23.5692 14.0786 24.0342 14.4736 24.2719 15.1499C24.2812 15.1764 24.2719 15.1893 24.2442 15.1889L9.66612 14.9307C9.62649 14.9298 9.61812 14.913 9.64102 14.8805L9.73613 14.7437C9.73884 14.7398 9.74043 14.7351 9.74075 14.7303C9.74107 14.7255 9.74011 14.7207 9.73795 14.7164C9.7358 14.7121 9.73254 14.7085 9.7285 14.7058C9.72447 14.7032 9.7198 14.7017 9.71499 14.7015L3.31298 14.5905C3.3003 14.5903 3.28821 14.5852 3.27931 14.5762C3.27041 14.5671 3.26542 14.555 3.26542 14.5423L3.26344 13.6262C3.263 13.6051 3.27357 13.5945 3.29514 13.5945C3.43605 13.5941 3.57893 13.595 3.72379 13.5972C5.71624 13.6319 7.70868 13.6658 9.70113 13.6989C9.80988 13.7006 9.99812 13.6819 10.2658 13.6427C10.2892 13.6392 10.3085 13.6286 10.324 13.611C10.3442 13.5877 10.3678 13.5679 10.3946 13.5516Z" fill="#6466F1"/>
<path id="Vector_17" d="M8.6509 16.5231C8.65386 16.5192 8.65572 16.5145 8.65625 16.5096C8.65678 16.5048 8.65597 16.4999 8.65391 16.4955C8.65186 16.4911 8.64863 16.4874 8.6446 16.4848C8.64057 16.4822 8.63589 16.4808 8.63109 16.4808L3.31357 16.3837C3.28099 16.3833 3.2647 16.3667 3.2647 16.3342L3.26404 15.4101C3.26404 15.3965 3.27064 15.3899 3.28385 15.3903C5.40663 15.4313 7.30353 15.459 8.97454 15.4736C9.06084 15.4744 9.14714 15.4755 9.23344 15.4769C9.25854 15.4773 9.27836 15.4674 9.29289 15.4471L9.39592 15.3012C9.41618 15.2726 9.44392 15.2587 9.47914 15.2596L24.3287 15.5178C24.3394 15.518 24.3497 15.522 24.3578 15.5291C24.3659 15.5363 24.3712 15.5461 24.3729 15.5568C24.4487 16.0248 24.3762 16.4852 24.1556 16.9378C24.1482 16.9532 24.1364 16.9661 24.1218 16.975C24.1072 16.9839 24.0903 16.9884 24.0731 16.988C19.4334 16.9053 14.7738 16.8234 10.094 16.7423C9.59539 16.7337 9.09672 16.6915 8.60203 16.7245C8.56724 16.7267 8.55535 16.7113 8.56636 16.6783C8.58353 16.6254 8.61171 16.5737 8.6509 16.5231Z" fill="#6466F1"/>
<path id="Vector_18" d="M7.59488 18.3407C7.63979 18.2768 7.62372 18.2517 7.54666 18.2654C7.4881 18.2755 7.42469 18.279 7.35644 18.276C6.01105 18.2172 4.65905 18.2126 3.31432 18.1934C3.28217 18.193 3.2661 18.1767 3.2661 18.1445L3.26478 17.2238C3.26434 17.1926 3.27975 17.1774 3.31101 17.1782C4.76142 17.2179 6.34987 17.2439 8.07636 17.2562C8.20384 17.2575 8.25536 17.1934 8.30819 17.0937C8.32713 17.0576 8.35663 17.04 8.3967 17.0409L23.8043 17.309C23.8876 17.3108 23.9001 17.3414 23.842 17.4008C23.663 17.5858 23.4596 17.7496 23.2337 17.879C22.7639 18.148 22.3 18.4155 21.8421 18.6815C21.7707 18.7229 21.6954 18.7429 21.6162 18.7416C16.8427 18.6632 12.1564 18.5802 7.55723 18.4926C7.51144 18.4917 7.50175 18.4723 7.52817 18.4345L7.59488 18.3407Z" fill="#6466F1"/>
<path id="Vector_19" d="M7.32603 18.8638C7.32791 18.8611 7.33037 18.8589 7.33323 18.8573C7.33609 18.8557 7.33927 18.8548 7.34254 18.8546C7.70977 18.8396 8.09153 18.8354 8.48781 18.842C12.7822 18.9151 16.9926 18.9889 21.1188 19.0633C21.1576 19.0642 21.1602 19.0743 21.1267 19.0937L18.7754 20.4509C18.7314 20.4765 18.6838 20.4888 18.6328 20.4879C15.3295 20.4289 12.0498 20.3712 8.79362 20.3149C8.17607 20.3043 7.60079 20.2581 6.99579 20.2251C6.94295 20.222 6.90443 20.1975 6.88021 20.1518C6.87052 20.1328 6.85511 20.1227 6.83397 20.1214C6.45838 20.0919 6.10525 20.067 5.77457 20.0467C4.95293 19.9959 4.12271 20.0117 3.30372 19.982C3.27818 19.9811 3.26541 19.9681 3.26541 19.943L3.26343 19.0375C3.26343 19.0049 3.27972 18.9891 3.3123 18.99C4.29862 19.0063 5.29418 19.0252 6.29899 19.0468C6.61073 19.054 6.89408 19.0283 7.19063 19.0144C7.21397 19.0131 7.23202 19.003 7.24479 18.984L7.32603 18.8638Z" fill="#6466F1"/>
<path id="Vector_20" d="M6.84449 22.011C6.73948 22.0018 6.66616 21.9304 6.577 21.9225C6.13382 21.8815 5.69328 21.8347 5.24481 21.8254C4.61119 21.8122 3.96194 21.8016 3.29706 21.7937C3.27505 21.7937 3.26404 21.7827 3.26404 21.7607L3.2647 20.8221C3.2647 20.8174 3.26563 20.8128 3.26744 20.8084C3.26925 20.8041 3.2719 20.8002 3.27523 20.7969C3.27856 20.7936 3.2825 20.7911 3.28682 20.7894C3.29114 20.7877 3.29575 20.787 3.30036 20.7871C4.02161 20.8047 4.72832 20.8155 5.4205 20.8195C5.75955 20.8217 6.10476 20.7984 6.45613 20.7495C6.55652 20.7356 6.64569 20.7746 6.7441 20.7211C6.83128 20.6744 6.94092 20.6513 7.07302 20.6517C7.69255 20.6557 8.30415 20.6359 8.92302 20.6465C12.0048 20.6971 15.0591 20.7515 18.0858 20.8096C18.1303 20.8105 18.1334 20.8219 18.0951 20.8439L15.7557 22.194C15.7016 22.2251 15.6404 22.2408 15.5787 22.2395C13.3454 22.1981 11.153 22.1603 9.00162 22.1259C8.27685 22.1145 7.55781 22.0762 6.84449 22.011Z" fill="#6466F1"/>
<path id="Vector_21" d="M7.01761 23.7157C6.65369 23.6992 6.28448 23.6464 5.92584 23.6365C5.04916 23.614 4.17755 23.5986 3.311 23.5902C3.28062 23.5902 3.26543 23.575 3.26543 23.5447L3.26477 22.6253C3.26477 22.6198 3.26587 22.6143 3.26801 22.6093C3.27015 22.6042 3.27328 22.5997 3.27723 22.5958C3.28117 22.592 3.28584 22.589 3.29096 22.5871C3.29609 22.5851 3.30155 22.5841 3.30704 22.5843C3.83014 22.5967 4.36865 22.6081 4.92257 22.6187C5.51766 22.6292 6.07643 22.6002 6.66227 22.5619C6.68473 22.5601 6.70542 22.5535 6.72436 22.5421C6.81374 22.4883 6.92316 22.4613 7.05261 22.4608C7.78707 22.4588 8.51822 22.4403 9.2738 22.4555C11.2028 22.4938 13.1196 22.5273 15.0239 22.5559C15.0913 22.5568 15.0959 22.574 15.0378 22.6074L12.6924 23.9627C12.6648 23.9791 12.633 23.9874 12.6006 23.9865C10.9789 23.9592 9.42043 23.9304 7.92511 23.9C7.70231 23.8956 7.474 23.8828 7.24019 23.8617C7.16952 23.8557 7.11668 23.8353 7.0896 23.7679C7.07683 23.7349 7.05283 23.7175 7.01761 23.7157Z" fill="#6466F1"/>
<path id="Vector_22" d="M7.40993 24.4409C7.41428 24.4391 7.41805 24.4362 7.42087 24.4325C7.4237 24.4288 7.42547 24.4243 7.426 24.4196C7.42654 24.4149 7.42583 24.4101 7.42393 24.4058C7.42204 24.4014 7.41903 24.3975 7.41522 24.3946C7.37207 24.3621 7.34146 24.3189 7.32341 24.2652C7.32184 24.2605 7.32143 24.2555 7.32221 24.2507C7.323 24.2458 7.32495 24.2411 7.32792 24.2371C7.33089 24.2331 7.33479 24.2299 7.33929 24.2276C7.34379 24.2254 7.34876 24.2242 7.35379 24.2242L12.0234 24.2995C12.0775 24.3004 12.0813 24.3143 12.0346 24.3411L9.7117 25.6832C9.66242 25.7118 9.60627 25.7264 9.54922 25.7255L8.32338 25.7017C8.30258 25.7013 8.2821 25.6962 8.26346 25.6867C8.24482 25.6772 8.2285 25.6636 8.21572 25.6469L8.1041 25.499C8.09727 25.4901 8.08857 25.4829 8.07862 25.4779C8.06867 25.4728 8.05774 25.4701 8.04663 25.4699L3.31034 25.384C3.2804 25.3836 3.26543 25.3684 3.26543 25.3385L3.26477 24.4072C3.26477 24.4002 3.26755 24.3935 3.27251 24.3885C3.27746 24.3836 3.28418 24.3808 3.29119 24.3808C3.38057 24.3821 3.47524 24.3839 3.5752 24.3861C4.83847 24.4151 6.07687 24.4396 7.29039 24.4594C7.33838 24.4603 7.37823 24.4541 7.40993 24.4409Z" fill="#6466F1"/>
<path id="Vector_23" d="M9.00891 26.0934L8.75264 26.2302C8.74835 26.2324 8.74342 26.2332 8.73863 26.2324C8.73385 26.2316 8.72948 26.2291 8.72622 26.2255L8.59016 26.073C8.5873 26.0698 8.58544 26.0658 8.58482 26.0616C8.5842 26.0573 8.58485 26.053 8.58669 26.0491C8.58852 26.0452 8.59146 26.042 8.59513 26.0398C8.5988 26.0375 8.60305 26.0365 8.60734 26.0366L8.999 26.0525C9.0038 26.0526 9.00844 26.0543 9.01218 26.0573C9.01593 26.0603 9.01857 26.0645 9.0197 26.0692C9.02083 26.0738 9.02038 26.0787 9.01843 26.0831C9.01648 26.0875 9.01313 26.0912 9.00891 26.0934Z" fill="#6466F1"/>
<path id="Vector_24" d="M6.01235 27.6991C4.86774 27.9474 3.7872 27.3147 3.38827 26.2196C3.3799 26.1963 3.38827 26.1848 3.41337 26.1853L8.57963 26.2751C8.65008 26.2764 8.65471 26.2945 8.5935 26.3292C8.01756 26.6568 7.45351 26.9836 6.90135 27.3094C6.54998 27.5168 6.25364 27.6467 6.01235 27.6991Z" fill="#6466F1"/>
</g>
</svg>
